<svg width="21" height="20" viewBox="0 0 21 20" fill="none" xmlns="http://www.w3.org/2000/svg">
<path d="M18.9377 7.60938C18.8595 7.36327 18.7087 7.14654 18.5052 6.98761C18.3016 6.82868 18.0548 6.73496 17.7971 6.71875L13.1565 6.39844L11.4377 2.0625C11.3439 1.82375 11.1805 1.61867 10.9688 1.47382C10.7571 1.32896 10.5067 1.25099 10.2502 1.25C9.99368 1.25099 9.74336 1.32896 9.53164 1.47382C9.31992 1.61867 9.15656 1.82375 9.06271 2.0625L7.31271 6.42188L2.70334 6.71875C2.44592 6.73601 2.1996 6.83012 1.99625 6.9889C1.7929 7.14768 1.64188 7.36383 1.56271 7.60938C1.48141 7.85869 1.47666 8.12664 1.54907 8.37868C1.62148 8.63072 1.76773 8.85529 1.96896 9.02344L5.51584 12.0234L4.46115 16.1719C4.38818 16.4525 4.40131 16.7486 4.49884 17.0217C4.59637 17.2948 4.77378 17.5322 5.00802 17.7031C5.23539 17.8663 5.50628 17.9579 5.78602 17.9663C6.06577 17.9746 6.34164 17.8993 6.57834 17.75L10.2424 15.4297H10.258L14.2033 17.9219C14.4057 18.0534 14.6417 18.1239 14.883 18.125C15.0801 18.1235 15.2742 18.0767 15.4504 17.9884C15.6266 17.9002 15.7802 17.7727 15.8994 17.6157C16.0186 17.4588 16.1002 17.2766 16.138 17.0832C16.1758 16.8898 16.1688 16.6903 16.1174 16.5L15.0002 11.9609L18.5315 9.02344C18.7327 8.85529 18.8789 8.63072 18.9514 8.37868C19.0238 8.12664 19.019 7.85869 18.9377 7.60938Z" fill="#DAC061"/>
</svg>
